# xmcd
#
# Track frame offsets:
#	150
#	19865
#	37496
#	61707
#	80334
#	101604
#	120677
#	140942
#	161679
#	184132
#	206856
#	227945
#	250356
#	275805
#
# Disc length: 3953 seconds
#
# Revision: 0
# Processed by: cddbd v1.5.2PL0 Copyright (c) Steve Scherf et al.
# Submitted via: EasyCDDAExtractor 16.0.6.1
#
DISCID=d90f6f0e
DTITLE=Đàm Vĩnh Hưng - Đàm Vĩnh Hưng: Góc Khuất
DYEAR=2012
DGENRE=Pop
TTITLE0=Đàm Vĩnh Hưng and Rap FBBBOIZ - Tình Yêu Online ©
TTITLE1=Đàm Vĩnh Hưng and Rap FBBBOIZ - Trốn Tránh Kỷ Niệm ©
TTITLE2=Đàm Vĩnh Hưng - Mắt Buồn
TTITLE3=Đàm Vĩnh Hưng - Chút Tình Phai ©
TTITLE4=Đàm Vĩnh Hưng - Trăng Bơ Vơ ©
TTITLE5=Đàm Vĩnh Hưng - Trăng Bơ Vơ © - REMIX
TTITLE6=Đàm Vĩnh Hưng - Liên Khúc: Đợi Em Trong Mơ and Unbreak My Heart
TTITLE7=Đàm Vĩnh Hưng and Tina Tình - Đừng Yêu Anh ©
TTITLE8=Đàm Vĩnh Hưng - Có Những Trái Ngang ©
TTITLE9=Đàm Vĩnh Hưng - Chỉ Còn Đêm Nay ©
TTITLE10=Đàm Vĩnh Hưng - Ngủ Mơ
TTITLE11=Đàm Vĩnh Hưng - Đời Phong Lưu ©
TTITLE12=Đàm Vĩnh Hưng - Góc Khuất ©
TTITLE13=Đàm Vĩnh Hưng - Góc Khuất © - REMIX
EXTD=
EXTT0=
EXTT1=
EXTT2=
EXTT3=
EXTT4=
EXTT5=
EXTT6=
EXTT7=
EXTT8=
EXTT9=
EXTT10=
EXTT11=
EXTT12=
EXTT13=
PLAYORDER=
